<svg width="82" height="335" viewBox="0 0 82 335" fill="none" xmlns="http://www.w3.org/2000/svg">
<path d="M47.97 192.556C47.97 187.139 47.1733 183.474 45.58 181.562C44.3053 179.65 41.9153 178.694 38.41 178.694H28.85V335H0.17V0.399977H38.888C64.0627 0.399977 76.65 13.1467 76.65 38.64V135.674C76.65 144.278 75.5347 150.651 73.304 154.794C71.392 158.937 67.2493 162.283 60.876 164.832V165.788C67.2493 168.337 71.392 171.683 73.304 175.826C75.5347 179.969 76.65 186.342 76.65 194.946V291.98C76.65 298.991 76.8093 306.001 77.128 313.012C77.4467 319.704 78.8807 326.715 81.43 334.044V335H52.75C49.5633 320.979 47.97 306.479 47.97 291.502V192.556ZM47.97 41.03C47.97 35.6127 47.1733 31.948 45.58 30.036C44.3053 28.124 41.9153 27.168 38.41 27.168H28.85V151.926H38.41C44.7833 151.926 47.97 147.305 47.97 138.064V41.03Z" fill="#0000F3"/>
</svg>
